# xmcd
#
# Track frame offsets: 
#        150
#        19350
#        44700
#        76033
#
# Disc length: 1140 seconds
#
# Revision: 0
# Processed by: cddbd v1.5.2PL0 Copyright (c) Steve Scherf et al.
# Submitted via: ExactAudioCopyFreeDBPlugin 1.0
#
DISCID=2a047204
DTITLE=Tiffany - New Inside [CDM Promo)
DYEAR=1990
DGENRE=R&B
TTITLE0=New Inside (Edit)
TTITLE1=New Inside (LP Version)
TTITLE2=New Inside (12" Version)
TTITLE3=New Inside (Bonus Beats)
EXTD=
EXTT0=
EXTT1=
EXTT2=
EXTT3=
PLAYORDER=
